<svg xmlns="http://www.w3.org/2000/svg" width="100%" height="100%" viewBox="0 0 137.1015625 21.48388671875" fill="#fffaff">
  <path d="M0 0.22L4.40 0.22L8.60 12.08L12.78 0.22L17.21 0.22L17.21 16.58L13.82 16.58L13.82 12.11L14.16 4.39L9.75 16.58L7.43 16.58L3.03 4.40L3.37 12.11L3.37 16.58L0 16.58L0 0.22ZM29.61 11.13L32.98 11.13Q32.79 13.77 31.04 15.28Q29.28 16.80 26.40 16.80L26.40 16.80Q23.26 16.80 21.46 14.68Q19.65 12.57 19.65 8.87L19.65 8.87L19.65 7.87Q19.65 5.51 20.48 3.72Q21.32 1.92 22.86 0.96Q24.40 0 26.45 0L26.45 0Q29.28 0 31.01 1.52Q32.74 3.03 33.01 5.77L33.01 5.77L29.64 5.77Q29.51 4.19 28.76 3.48Q28.00 2.76 26.45 2.76L26.45 2.76Q24.76 2.76 23.93 3.97Q23.09 5.18 23.07 7.72L23.07 7.72L23.07 8.95Q23.07 11.60 23.87 12.83Q24.67 14.05 26.40 14.05L26.40 14.05Q27.96 14.05 28.73 13.34Q29.50 12.62 29.61 11.13L29.61 11.13ZM50.39 11.13L53.76 11.13Q53.57 13.77 51.81 15.28Q50.05 16.80 47.18 16.80L47.18 16.80Q44.03 16.80 42.23 14.68Q40.43 12.57 40.43 8.87L40.43 8.87L40.43 7.87Q40.43 5.51 41.26 3.72Q42.09 1.92 43.64 0.96Q45.18 0 47.22 0L47.22 0Q50.05 0 51.78 1.52Q53.51 3.03 53.78 5.77L53.78 5.77L50.41 5.77Q50.29 4.19 49.53 3.48Q48.77 2.76 47.22 2.76L47.22 2.76Q45.54 2.76 44.70 3.97Q43.87 5.18 43.84 7.72L43.84 7.72L43.84 8.95Q43.84 11.60 44.65 12.83Q45.45 14.05 47.18 14.05L47.18 14.05Q48.74 14.05 49.51 13.34Q50.28 12.62 50.39 11.13L50.39 11.13ZM55.25 10.53L55.25 10.39Q55.25 8.58 55.95 7.17Q56.65 5.75 57.95 4.98Q59.26 4.20 60.99 4.20L60.99 4.20Q63.45 4.20 65.01 5.71Q66.56 7.21 66.74 9.79L66.74 9.79L66.77 10.62Q66.77 13.42 65.20 15.11Q63.64 16.80 61.02 16.80Q58.39 16.80 56.82 15.12Q55.25 13.43 55.25 10.53L55.25 10.53ZM58.50 10.62L58.50 10.62Q58.50 12.35 59.15 13.27Q59.80 14.18 61.02 14.18L61.02 14.18Q62.19 14.18 62.86 13.28Q63.52 12.38 63.52 10.39L63.52 10.39Q63.52 8.69 62.86 7.76Q62.19 6.83 60.99 6.83L60.99 6.83Q59.80 6.83 59.15 7.75Q58.50 8.68 58.50 10.62ZM68.76 4.42L71.81 4.42L71.91 5.78Q73.20 4.20 75.40 4.20L75.40 4.20Q77.75 4.20 78.62 6.05L78.62 6.05Q79.90 4.20 82.27 4.20L82.27 4.20Q84.25 4.20 85.22 5.35Q86.18 6.50 86.18 8.82L86.18 8.82L86.18 16.58L82.93 16.58L82.93 8.83Q82.93 7.79 82.52 7.32Q82.12 6.84 81.10 6.84L81.10 6.84Q79.64 6.84 79.07 8.23L79.07 8.23L79.08 16.58L75.84 16.58L75.84 8.84Q75.84 7.78 75.42 7.31Q75.01 6.84 74.01 6.84L74.01 6.84Q72.63 6.84 72.01 7.98L72.01 7.98L72.01 16.58L68.76 16.58L68.76 4.42ZM99.61 10.44L99.61 10.61Q99.61 13.42 98.34 15.11Q97.06 16.80 94.90 16.80L94.90 16.80Q93.06 16.80 91.92 15.52L91.92 15.52L91.92 21.25L88.68 21.25L88.68 4.42L91.69 4.42L91.80 5.62Q92.98 4.20 94.88 4.20L94.88 4.20Q97.12 4.20 98.37 5.86Q99.61 7.52 99.61 10.44L99.61 10.44ZM96.37 10.38L96.37 10.38Q96.37 8.68 95.77 7.76Q95.17 6.84 94.02 6.84L94.02 6.84Q92.49 6.84 91.92 8.01L91.92 8.01L91.92 12.98Q92.52 14.18 94.04 14.18L94.04 14.18Q96.37 14.18 96.37 10.38ZM111.95 16.58L108.67 16.58Q108.44 16.14 108.34 15.49L108.34 15.49Q107.16 16.80 105.27 16.80L105.27 16.80Q103.49 16.80 102.32 15.77Q101.14 14.73 101.14 13.16L101.14 13.16Q101.14 11.23 102.57 10.20Q104.01 9.16 106.71 9.15L106.71 9.15L108.21 9.15L108.21 8.46Q108.21 7.61 107.77 7.11Q107.34 6.60 106.41 6.60L106.41 6.60Q105.59 6.60 105.12 7.00Q104.66 7.39 104.66 8.07L104.66 8.07L101.41 8.07Q101.41 7.02 102.06 6.12Q102.71 5.22 103.90 4.71Q105.09 4.20 106.58 4.20L106.58 4.20Q108.82 4.20 110.14 5.33Q111.46 6.46 111.46 8.50L111.46 8.50L111.46 13.77Q111.47 15.50 111.95 16.39L111.95 16.39L111.95 16.58ZM105.98 14.32L105.98 14.32Q106.70 14.32 107.31 14.00Q107.91 13.68 108.21 13.14L108.21 13.14L108.21 11.05L106.99 11.05Q104.56 11.05 104.40 12.74L104.40 12.74L104.39 12.93Q104.39 13.53 104.81 13.93Q105.24 14.32 105.98 14.32ZM113.89 4.42L116.94 4.42L117.04 5.83Q118.35 4.20 120.54 4.20L120.54 4.20Q122.47 4.20 123.41 5.33Q124.35 6.47 124.38 8.73L124.38 8.73L124.38 16.58L121.13 16.58L121.13 8.80Q121.13 7.77 120.68 7.31Q120.23 6.84 119.19 6.84L119.19 6.84Q117.82 6.84 117.13 8.01L117.13 8.01L117.13 16.58L113.89 16.58L113.89 4.42ZM129.12 4.42L131.37 11.98L133.62 4.42L137.10 4.42L132.22 18.46L131.95 19.10Q130.86 21.48 128.35 21.48L128.35 21.48Q127.65 21.48 126.92 21.27L126.92 21.27L126.92 18.81L127.41 18.82Q128.33 18.82 128.79 18.54Q129.24 18.26 129.50 17.61L129.50 17.61L129.88 16.61L125.62 4.42L129.12 4.42Z" preserveAspectRatio="none"/>
</svg>